<svg id="Calque_1" data-name="Calque 1" xmlns="http://www.w3.org/2000/svg" viewBox="0 0 432 432"><defs><style>.cls-1{fill:#282828;}.cls-2{fill:#9a2a44;}</style></defs><title>12_100_REDO_January_2017_LoveSVG</title><path class="cls-1" d="M165.28,210.11c1.85,0,3.38-.24,3.46-2.17a2.11,2.11,0,0,0-1.77-2.32c-.56-.09-.16-.09-13-.09-1-12.92-.32-42-1.92-49.86a2.42,2.42,0,0,0-2.33-2c-8.11-1-8.6-1-8.6,3.3,0,6,.49,38.7.65,49C141.84,210.75,142.48,209.71,165.28,210.11Z"/><path class="cls-1" d="M210.17,205.29c10.36-8.83,11-30.19-1.2-43.44-24-26.17-51.71,10-37.58,36.62C179.18,213.08,202.39,212,210.17,205.29ZM194.76,159.2c23.44,4.74,23.84,42.08,6.26,45.05S177.57,155.75,194.76,159.2Z"/><path class="cls-1" d="M235.32,207.94c1,2.49,4.57,2.89,5.53-.88C255.23,154.55,256,155,253,154.31c-2.81-.57-2.09.16-11.4,32.36-.48-1-.8-1.61-1.05-2.25C229,153.18,229.61,152.86,226.4,153.1c-8.67.72-11.4-1.36-9.07,4.9C233.07,200.24,229.21,192.45,235.32,207.94Z"/><path class="cls-1" d="M284.38,209.39a26.47,26.47,0,0,0,5.54-1.13c2.89-.8,2.33-4.57-1-4.17a53,53,0,0,1-16.94,1.2c-.24-4.65-.49-9.23-.73-14,4.9,0,8.11.48,8.35-1.92.16-1.53-1.36-2.49-3-2.49-2.73-.08-2.49.16-5.54-.08-.64-5.38-1-23.77-.64-28.19,10.28-2.65,13.41.4,14-2.65,1-4.66-12.93-2.33-17.58-.88-6.43,1.93-8.19,7.47-8.27,14.29-.24,23.61.08,24.65,1.12,33.16S275.39,210,284.38,209.39Z"/><path class="cls-2" d="M176.31,233.49c.11-.11.22-.11.33-.32,1.51,0,3.12.1,4.63,0,3.13-.11,4.53-1.51,5-4.53a13.51,13.51,0,0,1,.11-2c.21-3.66-.76-4.63-4.42-4.85H163.71a17.25,17.25,0,0,0-3.13.43,1.63,1.63,0,0,0-1.51,1.51,45.09,45.09,0,0,0,.11,6.47,2.25,2.25,0,0,0,2.26,2,12.87,12.87,0,0,1,1.94.21c-2.58,5.61-5.17,11.1-7.86,16.92-2.7-5.82-5.18-11.21-7.65-16.81a3.86,3.86,0,0,1,1-.22,3.55,3.55,0,0,0,3-3.44c.11-1.08.22-2.16.22-3.13-.11-2.69-1-3.56-3.56-3.66-2.8-.22-5.6-.22-8.3-.33H128.36c-1.72,0-2.48.76-2.48,2.59a23.45,23.45,0,0,0,.33,4.74c.32,2.05,1.07,2.8,3.23,2.91,1.72.22,3.45.32,5.28.43.21.54.43.86.64,1.3,4.32,9.15,8.74,18.31,13,27.47a9.74,9.74,0,0,1,.43,1.84c.32,7.54.64,15.08,1.07,22.63V288c-1.72.21-3.23.32-4.74.54s-2.26,1.07-2.37,2.69c0,1.19,0,2.37.11,3.56.11,3.55.75,4.31,4.42,4.52h.75c3.45.11,6.9.43,10.45.43a52.32,52.32,0,0,0,8.2-.32c2.26-.11,3.23-1.18,3.66-3.45.11-1.08.21-2.26.21-3.34.11-3-1.18-4.42-4.2-4.63-1-.11-2.05-.11-3.23-.22,0-1.51-.11-3-.22-4.42-.1-7.32-.32-14.54-.54-21.87a6.66,6.66,0,0,1,.76-3.88C167.59,249.55,172,241.57,176.31,233.49ZM157.78,291.9a2.13,2.13,0,0,0,.22.86h6.68a5.18,5.18,0,0,1,1.83.21c.43.22,1.08.76,1.08,1.19s-.54.86-1.08,1.19a2.57,2.57,0,0,1-1.29.21H148.08a5.61,5.61,0,0,1-1.94-.43.79.79,0,0,1-.1-1.51,6.54,6.54,0,0,1,2.37-.75c1.61-.11,3.33-.11,5-.22a8.59,8.59,0,0,0,1.62-.11,20.19,20.19,0,0,0,0-2.58c-.76-9.16-.65-18.43-.76-27.59a5.18,5.18,0,0,0-.43-2.26c-5.6-10-11.1-20.05-15.3-30.72a7.68,7.68,0,0,1-.43-1c-1.73-.1-3.45-.21-5.07-.43a11.82,11.82,0,0,1-2.15-.32,1.09,1.09,0,0,1-.65-.86,1.06,1.06,0,0,1,.65-.86,6.52,6.52,0,0,1,2-.22l11.53.32c.86.11,1.83,0,2.69.11s1.4.22,1.4,1.08-.64,1.08-1.29,1.08c-1.62.1-3.23.1-4.74.1-.43,0-.76.11-1.29.11,4.2,10,9.05,19.51,14.11,29.1,5.28-9.81,10.35-19.4,15.63-29.31h-4.64a27.94,27.94,0,0,1-3.12-.22c-.32,0-.86-.43-.86-.65a1.77,1.77,0,0,1,.64-1.07,2.85,2.85,0,0,1,1.3-.33c1.51-.1,3-.32,4.52-.32,3.77,0,7.44,0,11.1-.11a4.37,4.37,0,0,1,1.19.11c.75,0,1.51.11,1.51,1.08s-.76,1.18-1.51,1.18c-1.94.11-3.88.11-5.72.11a1.89,1.89,0,0,0-1.94,1.19c-4,7.65-8.08,15.3-12.17,22.84-1.19,2.27-2.37,4.53-3.34,6.9a10.85,10.85,0,0,0-.65,3.23v8.3C157.46,277.67,157.56,284.78,157.78,291.9Z"/><path class="cls-2" d="M222.56,224.76c-3.88-1.72-7.76-2.8-12.18-2.26a24,24,0,0,0-15,7.43,30.73,30.73,0,0,0-5.28,7.76c-5.07,10.56-7.22,21.66-5.17,33.3,1.07,6.47,3.12,12.61,7.22,17.89,6.25,8,14.44,11.75,24.56,10.88,7.12-.53,12.72-3.66,16.49-9.91a45.62,45.62,0,0,0,2.59-5.07,68.13,68.13,0,0,0,4.42-22.19c0-8.63-.86-14.88-2.91-20.8C234.62,234.14,230.21,228.1,222.56,224.76Zm7.65,61a17,17,0,0,1-12,8.19,24.23,24.23,0,0,1-8.83.22c-5.5-1.08-9.59-4.42-12.83-8.73a36,36,0,0,1-7-22.31A50.21,50.21,0,0,1,194,241.46a24.74,24.74,0,0,1,7.43-9.48c7.87-6.14,18.32-5.06,24.57,2.69,4.1,5.18,6.36,11.21,7.76,17.46a62.88,62.88,0,0,1,1.51,15.52A34.48,34.48,0,0,1,230.21,285.75Z"/><path class="cls-2" d="M230.21,250.3c-1.4-5.17-3.34-10.24-6.9-14.44a13.38,13.38,0,0,0-14.12-4.63c-5.82,1.18-9.8,5-12.39,10.13A45,45,0,0,0,193,271.53a29.7,29.7,0,0,0,9.91,16.81,13.33,13.33,0,0,0,8.08,3.23,21.71,21.71,0,0,0,7-.64,13.62,13.62,0,0,0,9.91-7.33,31.28,31.28,0,0,0,4.31-16.81A68.08,68.08,0,0,0,230.21,250.3Zm-7,31.68c-1.72,3-4.31,4.21-7.54,4.42h-1.3c-4.74.11-8.29-2-10.88-6A24.62,24.62,0,0,1,200,270.13c-1-7.76-.86-15.41,1.51-22.95,1-3.45,2.37-6.69,5.18-9.06a21.44,21.44,0,0,1,4.2-2.69,4.77,4.77,0,0,1,5.28.75,30.76,30.76,0,0,1,4.42,4.75,32.26,32.26,0,0,1,3.55,7.22,51.44,51.44,0,0,1,3.13,16.59A34.47,34.47,0,0,1,223.2,282Z"/><path class="cls-2" d="M298.21,231.87a15.33,15.33,0,0,0,0-7c-.54-2.16-1.51-3-3.77-3-5.49,0-11,0-16.59.11a11.79,11.79,0,0,0-2.7.32,3.25,3.25,0,0,0-2.59,2.48,18.88,18.88,0,0,0,.44,7.76,3.24,3.24,0,0,0,2.91,2.37c.53,0,1.18.11,1.83.11.11,1.08.32,2.05.32,3,.22,6.78.54,13.68.54,20.47.11,6.14-.22,12.29-.54,18.32a10.65,10.65,0,0,1-.75,4.1,6.69,6.69,0,0,1-8.52,4.31,6.4,6.4,0,0,1-4-4.75,24.6,24.6,0,0,1-1.19-6.14c-.54-5.49-.75-10.88-1.18-16.38-.43-7.11-1.08-14.22-.87-21.44,0-.65.11-1.3.11-1.94a16.32,16.32,0,0,0,2.37-.11,2.76,2.76,0,0,0,2.59-2.26,22.7,22.7,0,0,0,.21-8.09c-.32-1.83-1.07-2.47-2.9-2.47-6.58,0-13,.1-19.51.1a7.54,7.54,0,0,0-2.69.54,2.3,2.3,0,0,0-1.84,2.27,60.25,60.25,0,0,0,.43,7.65c.11,1.72,1,2.15,2.59,2.37,1.19,0,2.37.1,3.88.21,0,1.94.11,3.56.11,5.28.32,11.43.54,22.74,1.61,34.06.54,5.06,1,10.13,2.38,15,1.61,5.6,5.06,9.16,10.88,10a47.7,47.7,0,0,0,5.71.64,38.33,38.33,0,0,0,12.07-1.07c6-1.62,9.7-5.5,10.78-11.64A161.47,161.47,0,0,0,293,257.41v-22c1-.22,1.72-.43,2.48-.65A3.88,3.88,0,0,0,298.21,231.87Zm-4.52-2.69c-2.27.11-4.64,0-7.22,0,0,1.83-.11,3.45,0,5.06a354.81,354.81,0,0,1-.11,41.38c-.11,2.27-.43,4.53-.65,6.79a27.86,27.86,0,0,1-.86,3.24c-2.15,6.68-8.08,10.23-15,9.37-8.3-1.08-13.25-6.25-14.55-15a301,301,0,0,1-3.23-32.54c-.22-5.82-.43-11.53-.75-17.35a2.43,2.43,0,0,0-.11-.76c-2,0-4.1-.1-6-.1a10.5,10.5,0,0,1-1.84-.22c-.32-.11-.86-.32-.86-.86a2.5,2.5,0,0,1,.86-1.19,10.11,10.11,0,0,1,2.48-.32c5.17,0,10.24,0,15.41-.11h.43c1.08.11,1.73.54,1.73,1.19-.11,1-.76,1.18-1.51,1.29-1.83.11-3.56.11-5.39.22a12.68,12.68,0,0,1-1.94.1c0,2.48-.11,5,0,7.33.54,9.48,1.18,18.86,1.94,28.34.43,5.18,1.18,10.35,1.94,15.41.86,6,4.31,9.92,10.24,11.32a12.56,12.56,0,0,0,9.05-.86,7.63,7.63,0,0,0,3.56-3.56,19.1,19.1,0,0,0,1.94-6.79c.32-5.49.64-11,.75-16.59s.11-11.32,0-16.92c0-5.82-.22-11.64-.43-17.78-1,0-2.05-.11-3-.11-1.4-.11-2.8-.11-4.2-.32-.33,0-1-.22-1-.76.1-1,.43-.86.86-1.08a5.36,5.36,0,0,1,2.26-.43c5.07,0,10.13,0,15.2.11.86,0,1.94-.11,2.26,1.08C296.06,228.64,295.41,229.18,293.69,229.18Z"/><path class="cls-1" d="M169.36,315.75c-2.41-3.93-6.18-6.82-10.52-5.14-6.66,2.57-7,8-10.44,14.46-.24-1.13-.4-2-.56-2.89-1.28-6.1-5.54-12.13-11.56-10.36-16.62,4.74-14.3,34.61-14.21,50.83,0,1.92.16,3.93,2.08,3.85,2.17-.08,1.85-2.49,1.85-3.53.72-28.27-.08-32.28,5.22-41.68,1-1.92,2.57-4.09,3.53-2.08,3.05,6.34,2.57,37.09,3.86,44.88a2.8,2.8,0,0,0,3,2.57c4.66.16,8.11.81,8.43-3.29.32-4.66-1.93-31.32,5.62-42.88,7.07-10.92,6.18,32.2,6.75,43,.08,2.09,1,3,3,3.13,6.5.56,8.11.48,8.91-1.52s.4-1.21.16-24.74C174.5,332.22,173.62,322.66,169.36,315.75Z"/><path class="cls-1" d="M184.06,355.66c7.79,14.62,31,13.49,38.79,6.83,10.36-8.84,11-30.19-1.21-43.44C197.63,292.87,169.93,329.08,184.06,355.66Zm29.63,5.78c-17.66,3-23.44-48.5-6.26-45C230.88,321.13,231.28,358.47,213.69,361.44Z"/><path class="cls-1" d="M250.8,310.45c-4.26.08-8.59.49-12.85.81-2.89.16-2-2.25-.64,50.82.08,3.54-.08,5,2.57,4.9,9.47-.08,7,.65,7-15.9,2.65.81,4.66,1.85,6.11,3.86,3,4.41,3.21,7.71,3.69,9.07a2.15,2.15,0,1,0,4.18-1c-1.69-10.52-7.55-13.17-8.43-14.29,9.31-1.29,16.37-2.41,18.46-11.49C274.09,323.14,264.29,310.29,250.8,310.45ZM266.46,337c-2.09,6.83-10.92,7.15-19,7.47.32-10-.65-19.83.16-29.71C258.75,312.46,270.39,323.7,266.46,337Z"/><path class="cls-1" d="M307.25,361.28a53.13,53.13,0,0,1-16.94,1.21c-.24-4.66-.48-9.24-.72-14,4.9,0,8.11.48,8.35-1.93.16-1.53-1.37-2.49-3-2.49-2.73-.08-2.49.16-5.54-.08-.64-5.38-1.05-23.77-.64-28.19,10.27-2.65,13.4.41,14-2.65,1-4.65-12.93-2.32-17.59-.88-6.42,1.93-8.19,7.47-8.27,14.29-.24,23.61.08,24.66,1.12,33.17s15.66,7.38,24.66,6.82a27.37,27.37,0,0,0,5.54-1.12C311.11,364.65,310.55,360.88,307.25,361.28Z"/><path class="cls-2" d="M216.08,72.28c-12.66-10.4-31.8-10.65-41.53,4.53-13.43,21,8,52.5,31.16,63.4,21.57,10.16,54-19.82,55.82-45.22C263.24,71.52,237.25,54.28,216.08,72.28Zm38.77,26.25c-5.39,23.37-32.64,40.64-41.26,38.18a41.6,41.6,0,0,1-9.84-4.53C150.85,100.1,186.41,48.33,216,81,234.33,59,260.06,75.87,254.85,98.53Z"/><path class="cls-2" d="M216,86.93C199.49,63.12,177,77,180.47,96c2.87,16,20.42,33.68,35.57,37.57,15.15-3.89,32.7-21.62,35.58-37.57C255,77.2,232.77,62.85,216,86.93Z"/></svg>